<svg xmlns="http://www.w3.org/2000/svg" width="60" height="60" viewBox="0 0 600 600" version="1.1"><path d="M 315.408 69.893 C 313.707 70.930, 310.954 74.191, 309.290 77.140 C 306.443 82.184, 303.068 85.708, 293.165 93.977 C 290.874 95.890, 289 97.972, 289 98.605 C 289 99.238, 288.314 100.324, 287.476 101.020 C 286.638 101.716, 286.138 102.472, 286.367 102.700 C 287.055 103.388, 298.091 95.969, 304.645 90.412 C 308.024 87.546, 311.758 84.894, 312.943 84.518 C 315.379 83.745, 318 85.444, 318 87.797 C 318 89.064, 318.413 88.980, 320.250 87.340 C 321.488 86.236, 324.637 84.114, 327.250 82.624 C 332.492 79.635, 333.114 77.694, 330.335 72.990 C 327.310 67.870, 320.905 66.541, 315.408 69.893 M 319.024 75.955 C 317.674 78.477, 319.578 79.574, 323.569 78.572 C 326.983 77.715, 326.445 74.612, 322.809 74.190 C 320.922 73.971, 319.807 74.491, 319.024 75.955 M 236.500 126.563 C 234.850 127.416, 232.825 128.791, 232 129.618 C 230.666 130.955, 230.715 131.282, 232.441 132.561 C 233.509 133.353, 236.037 134, 238.060 134 C 241.519 134, 241.774 133.782, 242.332 130.344 C 243.259 124.631, 241.918 123.762, 236.500 126.563 M 293.405 142.111 C 291.600 144.111, 291.518 145.880, 291.851 175.861 L 292.201 207.500 289.394 214 C 286.574 220.530, 281.296 230.862, 280.078 232.237 C 278.953 233.508, 272.001 227.014, 271.985 224.677 C 271.975 223.343, 273.621 221.078, 276.235 218.828 L 280.500 215.155 280.423 204.328 C 280.345 193.286, 279.369 187.301, 275.856 176.310 C 272.167 164.770, 262.810 153.245, 255.677 151.455 L 252.973 150.776 253.219 203.263 L 253.466 255.750 263.626 255.750 C 269.214 255.750, 274.285 256.058, 274.893 256.434 C 275.502 256.810, 276 258.830, 276 260.923 C 276 274.720, 282.207 286.898, 292.399 293.096 C 296.156 295.381, 298.651 294.218, 305.341 287.066 C 311.141 280.866, 312.277 278.256, 314.579 265.838 C 316.652 254.656, 316.158 255, 330.125 255 L 338 255 338 202.474 L 338 149.949 335.016 151.492 C 324.578 156.889, 315.366 172.985, 312.405 191 C 309.605 208.034, 310.870 215.511, 317.394 220.487 C 321.384 223.530, 321.807 225.456, 319.175 228.603 C 317.565 230.529, 313.875 233, 312.608 233 C 311.702 233, 307.197 224.740, 303.865 216.971 L 300.661 209.500 300.520 178 C 300.396 150.353, 300.169 146.102, 298.664 143.250 C 296.649 139.432, 295.957 139.283, 293.405 142.111 M 205 143.345 C 198.120 144.940, 188.596 149.890, 183.975 154.272 C 178.535 159.431, 173.197 166.285, 171.550 170.226 C 170.082 173.740, 170.099 173.808, 172.602 174.436 C 174.810 174.991, 176.160 174.027, 182.823 167.136 C 197.405 152.056, 212.838 147.891, 231.215 154.075 C 237.240 156.102, 241.128 156.117, 241.795 154.115 C 242.481 152.057, 241.029 148, 239.605 148 C 238.859 148, 235.815 146.923, 232.839 145.608 C 225.989 142.578, 212.895 141.514, 205 143.345 M 367.981 143.192 C 364.396 143.603, 358.771 144.757, 355.481 145.756 C 349.569 147.550, 349.497 147.617, 349.239 151.536 C 348.827 157.791, 349.858 158.535, 355.613 156.135 C 372.493 149.093, 388.900 150.465, 402.837 160.084 C 408.388 163.915, 412 164.272, 412 160.989 C 412 156.956, 403.018 149.913, 393.007 146.095 C 384.611 142.893, 377.630 142.083, 367.981 143.192 M 261.658 167.675 C 260.480 168.853, 260.888 222, 262.074 222 C 262.665 222, 265.478 219.774, 268.324 217.052 L 273.500 212.105 273.313 202.899 C 273.041 189.493, 268.180 171.884, 263.731 168.192 C 262.953 167.546, 262.020 167.313, 261.658 167.675 M 326.444 171.505 C 322.049 179.005, 320.271 184.979, 319.057 196.331 C 318.228 204.076, 318.201 208.080, 318.962 210.385 C 320.231 214.231, 328.351 222.519, 329.907 221.558 C 331.320 220.684, 331.453 167, 330.042 167 C 329.515 167, 327.896 169.027, 326.444 171.505 M 154.090 178.635 C 148.583 184.892, 137.044 202.187, 133.717 209.171 C 132.231 212.290, 130.337 217.447, 129.508 220.631 C 127.747 227.392, 127.522 244.461, 129.069 254 C 130.237 261.204, 136.734 278.294, 140.664 284.500 C 146.690 294.015, 183.365 327.724, 193.463 333.028 C 202.428 337.737, 207.062 341.258, 215.382 349.683 C 222.944 357.342, 227.280 358.415, 231.228 353.605 C 234.246 349.928, 233.471 346.212, 228.750 341.727 C 214.481 328.172, 201.912 315.297, 201.413 313.726 C 200.677 311.407, 202.645 309, 205.277 309 C 206.499 309, 210.547 312.289, 215.431 317.250 C 219.899 321.788, 229.515 331.125, 236.802 338 C 244.088 344.875, 251.821 352.188, 253.986 354.250 C 260.343 360.306, 267 358.861, 267 351.425 C 267 348.344, 265.751 346.791, 254.787 336.246 C 219.088 301.913, 217 299.772, 217 297.504 C 217 294.969, 218.785 293, 221.084 293 C 222.010 293, 226.082 296.421, 230.134 300.603 C 234.185 304.784, 244.189 314.797, 252.364 322.853 C 260.539 330.909, 269.728 340.098, 272.784 343.273 C 279.430 350.181, 282.127 351.168, 285.555 347.948 C 288.762 344.935, 288.812 340.126, 285.669 336.896 C 280.468 331.549, 247.824 299.863, 238.250 290.869 C 232.613 285.572, 228 280.600, 228 279.820 C 228 277.732, 230.090 276, 232.610 276 C 234.615 276, 255.442 295.418, 278.462 318.750 C 284.698 325.070, 287.786 326.357, 290.413 323.729 C 291.975 322.168, 294 318.468, 294 317.178 C 294 316.653, 287.641 309.986, 279.868 302.362 C 272.096 294.738, 260.508 283.241, 254.118 276.813 C 240.942 263.559, 234.587 259.787, 222.500 258.047 C 209.568 256.186, 199.371 256.736, 190.600 259.769 L 182.700 262.500 180.983 267.774 C 178.258 276.144, 173.570 280, 166.121 280 C 161.385 280, 159.320 278.225, 158.410 273.371 C 156.682 264.159, 162.555 257.140, 174.193 254.511 C 178.212 253.603, 182.822 252.307, 184.438 251.632 L 187.376 250.403 181.517 247.096 C 171.682 241.546, 165.436 234.797, 160.161 224.020 L 155.500 214.500 155.546 200 C 155.578 189.843, 156.073 183.778, 157.201 179.750 C 158.086 176.588, 158.666 174, 158.490 174 C 158.314 174, 156.334 176.086, 154.090 178.635 M 434.395 179.500 C 438.662 196.781, 437.659 210.442, 431.092 224.513 C 425.604 236.271, 416.861 244.828, 403.868 251.161 C 395.453 255.262, 388.233 256.918, 378.500 256.979 C 374.100 257.007, 367.740 257.681, 364.366 258.476 C 352.711 261.225, 348.281 263.974, 335.500 276.390 C 328.900 282.802, 321.840 289.538, 319.810 291.360 C 315.023 295.657, 313.008 302.843, 317.292 300.342 C 319.505 299.050, 331.645 288.286, 339.477 280.672 C 351.075 269.396, 357.636 267.030, 377.356 267.012 C 385.462 267.004, 392.334 266.450, 395.956 265.512 C 403.423 263.577, 415.281 258.084, 421.129 253.851 C 430.725 246.905, 438.544 234.644, 442.061 221.027 C 445.887 206.214, 443.469 188.725, 436.458 180.500 C 434.486 178.187, 434.014 177.958, 434.395 179.500 M 165.671 199.415 C 164.571 202.281, 166.988 213.533, 170.031 219.714 C 173.420 226.598, 181.091 235.141, 187.532 239.206 C 189.749 240.605, 194.924 243.002, 199.032 244.533 C 205.793 247.054, 207.731 247.317, 219.500 247.315 C 226.650 247.313, 234.637 246.989, 237.250 246.595 L 242 245.877 242 221.939 L 242 198 204.107 198 C 172.357 198, 166.126 198.229, 165.671 199.415 M 349 221.378 C 349 240.572, 349.259 244.970, 350.449 245.958 C 351.495 246.826, 356.987 247.068, 370.199 246.830 L 388.500 246.500 397.147 242.271 C 404.317 238.765, 407.006 236.726, 412.894 230.337 C 421.106 221.425, 424.186 214.767, 424.376 205.513 L 424.500 199.526 420 198.837 C 417.525 198.458, 400.538 198.115, 382.250 198.074 L 349 198 349 221.378 M 292.403 224.341 C 287.115 233.393, 287.191 234.420, 293.582 240.241 L 296.591 242.982 300.267 238.585 L 303.943 234.188 300.255 226.594 C 298.227 222.417, 296.327 219.009, 296.034 219.020 C 295.740 219.031, 294.106 221.425, 292.403 224.341 M 260.561 233.354 C 260.194 236.299, 260.200 241.030, 260.577 243.868 C 261.326 249.515, 262.795 250.578, 268.557 249.642 C 270.176 249.379, 272.512 249.127, 273.750 249.082 C 275.797 249.007, 276 248.510, 276 243.567 C 276 239.151, 275.652 238.024, 274.142 237.545 C 273.120 237.221, 270.395 234.940, 268.087 232.478 C 265.778 230.015, 263.292 228, 262.560 228 C 261.703 228, 260.993 229.902, 260.561 233.354 M 325.067 232.576 C 323.255 234.568, 320.248 236.834, 318.386 237.612 C 314.801 239.110, 314.365 240.574, 315.625 246.875 C 316.188 249.688, 316.612 249.999, 319.875 249.989 C 321.869 249.983, 325.203 249.697, 327.285 249.353 L 331.069 248.727 330.785 239.195 C 330.617 233.567, 330.062 229.517, 329.431 229.308 C 328.844 229.114, 326.880 230.584, 325.067 232.576 M 302.619 245.433 C 301.178 247.322, 300 249.754, 300 250.838 C 300 252.576, 300.504 252.745, 304.250 252.267 C 306.587 251.969, 308.667 251.583, 308.870 251.409 C 309.074 251.235, 308.934 249.047, 308.559 246.546 C 307.734 241.046, 306.186 240.756, 302.619 245.433 M 283.607 244.582 C 283.273 245.452, 283 247.477, 283 249.082 C 283 251.874, 283.195 252, 287.500 252 C 291.368 252, 292 251.713, 292 249.952 C 292 247.860, 287.420 243.089, 285.357 243.032 C 284.728 243.014, 283.941 243.712, 283.607 244.582 M 283.508 263.191 C 285.009 272.385, 289.446 282, 292.188 282 C 292.671 282, 292.938 276.938, 292.783 270.750 L 292.500 259.500 287.652 259.191 L 282.804 258.882 283.508 263.191 M 299 267.875 C 299 272.756, 299.283 278.165, 299.629 279.895 L 300.258 283.039 302.600 279.864 C 306.081 275.147, 308.422 267.244, 308.115 261.250 C 308.014 259.267, 307.466 259, 303.500 259 L 299 259 299 267.875 M 471 262.314 C 471 266.313, 463.870 287.171, 458.779 298.064 C 455.906 304.213, 452.235 309.991, 448.323 314.520 C 440.641 323.416, 406.928 357.109, 401 361.816 C 394.486 366.988, 389.133 372.083, 386.766 375.365 L 384.700 378.230 387.100 377.486 C 392.082 375.943, 407.361 367.843, 413.341 363.576 C 426.973 353.848, 432.868 347.383, 445.320 328.500 C 452.724 317.273, 456.337 314.835, 455.326 321.750 C 454.183 329.556, 445.517 344.314, 435.181 356.057 C 430.587 361.276, 414.023 374.140, 405.995 378.723 C 397.821 383.390, 386.812 387.048, 378.958 387.707 C 375.131 388.028, 372 388.621, 372 389.025 C 372 389.429, 374.587 391.687, 377.750 394.043 C 386.230 400.359, 393.842 408.693, 394.957 412.883 C 396.515 418.732, 395.263 434.032, 392.577 441.969 C 390.565 447.917, 390.435 449, 391.731 449 C 398.203 449, 435.010 416.901, 445.625 402 C 453.703 390.659, 459.430 380.218, 463.495 369.417 C 464.894 365.699, 466.435 362.172, 466.918 361.579 C 468.770 359.305, 474.215 338.009, 475.631 327.500 C 477.762 311.676, 477.581 288.182, 475.215 273.693 C 474.155 267.200, 472.772 261.372, 472.143 260.743 C 471.286 259.886, 471 260.278, 471 262.314 M 201.841 280.588 C 200.532 281.897, 199.904 281.957, 198.259 280.930 C 194.954 278.866, 193 280.403, 193 285.067 C 193 290.407, 197.797 295.492, 201.925 294.527 C 207.982 293.111, 211.285 284.378, 207.171 280.655 C 204.890 278.590, 203.851 278.577, 201.841 280.588 M 355.758 286.968 C 354.250 287.900, 347.725 293.882, 341.258 300.261 C 334.791 306.640, 328.150 312.885, 326.500 314.139 C 324.850 315.392, 317.762 321.784, 310.750 328.344 C 299.305 339.049, 298 340.614, 298 343.635 C 298 345.486, 298.156 347, 298.346 347 C 300.583 347, 305.890 342.620, 310.368 337.078 C 313.418 333.302, 320.546 326.018, 326.207 320.892 C 342.358 306.268, 360.325 286.803, 358.830 285.550 C 358.648 285.398, 357.266 286.036, 355.758 286.968 M 358.928 311.709 C 357.100 313.244, 350.172 319.900, 343.533 326.500 C 336.894 333.100, 324.579 345.153, 316.166 353.284 C 304.260 364.791, 300.940 368.556, 301.185 370.273 C 301.358 371.487, 302.269 372.626, 303.209 372.805 C 304.891 373.126, 314.714 364.193, 330.336 348.136 C 334.276 344.087, 342.742 335.537, 349.149 329.136 C 358.109 320.186, 361.046 316.590, 361.872 313.556 C 362.463 311.387, 362.789 309.456, 362.598 309.265 C 362.407 309.074, 360.756 310.174, 358.928 311.709 M 366.970 333.682 C 341.302 358.478, 329.168 370.690, 328.647 372.250 C 328.326 373.212, 328.319 374.667, 328.631 375.482 C 329.638 378.106, 332.802 375.463, 352.399 355.628 C 371.961 335.829, 376.432 330.422, 375.807 327.320 C 375.520 325.895, 373.602 327.276, 366.970 333.682 M 375.274 353.918 C 359.274 369.523, 356.333 373.303, 358.040 376.065 C 359.195 377.933, 363.475 374.815, 367.175 369.409 C 368.647 367.259, 373.658 362.125, 378.312 358 C 386.315 350.907, 390.665 345.333, 392.164 340.250 C 392.528 339.012, 392.528 338.021, 392.164 338.046 C 391.799 338.071, 384.198 345.214, 375.274 353.918 M 230.264 389.718 C 231.784 389.947, 234.034 389.941, 235.264 389.704 C 236.494 389.467, 235.250 389.279, 232.500 389.286 C 229.750 389.294, 228.744 389.488, 230.264 389.718 M 286.521 391.959 C 285.135 394.640, 285.088 395.602, 286.195 398.662 C 286.946 400.739, 288.458 402.604, 289.808 403.117 C 291.085 403.603, 300.153 404, 309.958 404 C 325.292 404, 327.871 404.221, 328.393 405.582 C 329.341 408.053, 329.141 408.859, 327.060 410.940 C 325.180 412.820, 323.744 412.861, 280.288 412.284 C 238.675 411.731, 235.331 411.812, 233.727 413.415 C 231.636 415.507, 231.472 420.896, 233.419 423.559 C 234.777 425.417, 236.754 425.521, 279.669 426 L 324.500 426.500 324.845 428.944 C 325.547 433.918, 324.817 434, 279.983 434 L 238.349 434 236.174 436.314 C 233.489 439.173, 233.441 442.749, 236.046 445.876 C 237.583 447.722, 238.973 448.238, 242.263 448.185 C 294.711 447.342, 323.650 447.588, 325.250 448.888 C 327.488 450.706, 327.465 452.269, 325.171 454.345 C 323.554 455.809, 319.816 456, 292.786 456 L 262.230 456 260.530 458.594 C 258.532 461.644, 259.110 465.110, 262.118 468.118 C 264.153 470.153, 264.824 470.179, 305.343 469.814 C 345.716 469.450, 346.605 469.398, 352 467.124 C 355.025 465.849, 359.300 464.075, 361.500 463.182 C 374.869 457.751, 383.398 449.603, 387.858 438 C 392.038 427.128, 392.432 425.001, 390.269 424.996 C 387.572 424.991, 382.076 421.282, 381.014 418.752 C 380.494 417.514, 379.562 414.501, 378.944 412.057 C 377.258 405.399, 368.513 397.261, 358.372 392.914 L 350.500 389.541 319.320 389.185 L 288.139 388.830 286.521 391.959 M 346.655 421.829 C 345.745 422.835, 345 424.152, 345 424.756 C 345 426.474, 350.029 430, 352.480 430 C 357.184 430, 359.940 423.109, 356.066 421.035 C 353.060 419.426, 348.480 419.813, 346.655 421.829" stroke="none" fill="#fed420" fill-rule="evenodd"/><path d="M 253 58.535 C 253 62.264, 255.698 65.745, 259.582 67.027 C 261.462 67.647, 263 68.522, 263 68.971 C 263 70.056, 260.404 71, 257.418 71 C 256.088 71, 255 71.480, 255 72.066 C 255 73.783, 257.148 77.351, 259.407 79.385 C 260.853 80.686, 261.113 81.408, 260.250 81.718 C 258.114 82.485, 258.865 84.709, 262.213 87.525 C 265.243 90.075, 265.883 90.204, 273.500 89.805 C 284.070 89.250, 284.831 88.708, 280.897 84.538 C 279.172 82.709, 276.514 78.257, 274.990 74.645 C 273.466 71.032, 271.607 67.480, 270.859 66.752 C 266.914 62.908, 256.062 56, 253.970 56 C 253.436 56, 253 57.141, 253 58.535 M 332.750 59.299 C 331.238 59.897, 330 60.693, 330 61.067 C 330 61.442, 331.500 63.386, 333.333 65.387 C 336.471 68.813, 336.756 68.923, 338.205 67.263 C 344.403 60.160, 341.457 55.859, 332.750 59.299 M 307.078 79.182 C 305.306 82.032, 304.466 83.858, 305.212 83.239 C 306.632 82.060, 311.432 74, 310.713 74 C 310.485 74, 308.849 76.332, 307.078 79.182 M 311.500 85.154 C 310.400 85.771, 307.025 88.385, 304 90.965 C 298.732 95.458, 287.656 103, 286.326 103 C 285.976 103, 286.544 101.987, 287.588 100.750 L 289.486 98.500 286.993 100.633 C 285.622 101.806, 282.925 103.585, 281 104.585 L 277.500 106.404 280.264 106.952 C 281.784 107.253, 285.243 109.412, 287.950 111.750 C 293.436 116.488, 294.160 116.717, 296.128 114.344 C 296.882 113.434, 300.507 110.289, 304.182 107.356 C 307.858 104.423, 312.808 99.479, 315.182 96.370 C 317.557 93.261, 320.850 89.130, 322.500 87.190 C 324.836 84.445, 325.039 83.910, 323.418 84.777 C 322.273 85.390, 320.745 86.602, 320.023 87.472 C 318.848 88.888, 318.593 88.816, 317.580 86.785 C 316.254 84.125, 314.282 83.596, 311.500 85.154 M 292.676 93.115 C 290.598 94.829, 289.079 96.412, 289.301 96.635 C 289.524 96.857, 291.435 95.455, 293.548 93.520 C 298.304 89.163, 297.771 88.916, 292.676 93.115 M 242.349 126.750 C 242.379 133.660, 242.184 134, 238.191 134 C 236.096 134, 233.509 133.323, 232.441 132.496 C 230.552 131.032, 230.580 130.922, 233.500 128.390 L 236.500 125.788 233.150 127.644 C 225.947 131.634, 222.454 137, 227.059 137 C 228.191 137, 228.879 137.387, 228.587 137.859 C 228.295 138.332, 229.105 138.604, 230.386 138.463 C 231.668 138.322, 233.343 138.604, 234.109 139.088 C 234.874 139.573, 235.067 139.976, 234.538 139.985 C 234.009 139.993, 235.134 141.326, 237.038 142.948 L 240.500 145.895 233 143.354 C 226.355 141.102, 224.345 140.868, 215.364 141.293 C 209.789 141.557, 204.389 142.280, 203.364 142.900 C 201.830 143.828, 202.031 143.892, 204.500 143.264 C 206.150 142.844, 211.793 142.576, 217.039 142.669 C 224.880 142.809, 227.618 143.298, 232.414 145.419 C 235.623 146.839, 238.859 148, 239.605 148 C 241.029 148, 242.481 152.057, 241.795 154.115 C 241.128 156.117, 237.240 156.102, 231.215 154.075 C 212.838 147.891, 197.405 152.056, 182.823 167.136 C 176.160 174.027, 174.810 174.991, 172.602 174.436 C 170.099 173.808, 170.082 173.740, 171.550 170.226 C 173.211 166.250, 178.214 159.842, 184.409 153.757 L 188.500 149.738 184.500 153.009 C 180.063 156.637, 174.168 163.374, 171.129 168.291 C 167.930 173.468, 164.991 185.700, 165.079 193.480 C 165.122 197.341, 165.385 199.938, 165.662 199.250 C 166.053 198.281, 174.673 198, 204.020 198 L 241.873 198 242.187 201.250 C 242.359 203.037, 242.500 191.675, 242.500 176 C 242.500 160.325, 242.228 147.050, 241.895 146.500 C 241.562 145.950, 241.739 141.787, 242.287 137.250 C 243.275 129.074, 243.310 129, 246.142 129 C 249.250 129, 250.134 126.649, 247.418 125.607 C 244.491 124.484, 242.341 124.968, 242.349 126.750 M 348.532 133.647 C 348.925 137.416, 349.442 140.838, 349.682 141.250 C 350.305 142.323, 354.802 142.176, 356.976 141.013 C 358.617 140.134, 363 134.109, 363 132.731 C 363 131.523, 355.965 128.170, 352.038 127.506 L 347.819 126.794 348.532 133.647 M 364 142.464 C 360.975 143.177, 356.925 144.047, 355 144.395 C 348.229 145.622, 348.541 144.224, 348.520 173.429 C 348.509 188.018, 348.650 199.515, 348.833 198.977 C 349.212 197.866, 412.737 197.729, 419.956 198.824 C 423.578 199.374, 424.543 199.968, 425.109 202 C 425.493 203.375, 425.560 199.550, 425.260 193.500 C 424.611 180.448, 421.972 171.510, 416.363 163.365 C 412.115 157.197, 404.202 149.465, 403.182 150.484 C 402.816 150.850, 403.413 151.647, 404.508 152.254 C 407.680 154.012, 412 159.049, 412 160.989 C 412 164.272, 408.388 163.915, 402.837 160.084 C 388.900 150.465, 372.493 149.093, 355.613 156.135 C 349.955 158.495, 349.040 157.884, 349.015 151.725 C 349.002 148.521, 349.416 147.792, 351.750 146.904 C 358.078 144.495, 368.069 142.824, 376.500 142.765 C 384.095 142.711, 384.797 142.579, 381 141.924 C 374.662 140.831, 370.340 140.968, 364 142.464 M 193.750 146.566 C 191.137 147.926, 189 149.262, 189 149.536 C 189 149.982, 198.900 145.306, 199.917 144.380 C 201.155 143.251, 197.901 144.405, 193.750 146.566 M 390 144.734 C 390.825 145.051, 393.413 146.124, 395.750 147.120 C 398.087 148.115, 400 148.698, 400 148.416 C 400 147.623, 391.689 144.037, 390 144.101 C 388.667 144.152, 388.667 144.222, 390 144.734 M 290.336 155 C 290.336 159.125, 290.513 160.813, 290.728 158.750 C 290.944 156.688, 290.944 153.313, 290.728 151.250 C 290.513 149.188, 290.336 150.875, 290.336 155 M 338.336 157 C 338.336 161.125, 338.513 162.813, 338.728 160.750 C 338.944 158.688, 338.944 155.313, 338.728 153.250 C 338.513 151.188, 338.336 152.875, 338.336 157 M 291.320 171 C 291.320 174.575, 291.502 176.037, 291.723 174.250 C 291.945 172.463, 291.945 169.537, 291.723 167.750 C 291.502 165.963, 291.320 167.425, 291.320 171 M 300.407 182 C 300.407 191.075, 300.559 194.787, 300.744 190.250 C 300.929 185.713, 300.929 178.287, 300.744 173.750 C 300.559 169.213, 300.407 172.925, 300.407 182 M 154.946 176.748 L 151.500 180.496 154.750 177.561 C 157.644 174.947, 158.008 174.838, 158.070 176.563 C 158.138 178.436, 158.169 178.434, 159 176.500 C 161.057 171.713, 159.487 171.809, 154.946 176.748 M 432.015 175.250 C 432.024 175.387, 432.708 177.525, 433.536 180 C 434.769 183.682, 434.948 183.887, 434.522 181.128 C 434.050 178.070, 434.157 177.884, 435.675 179.128 C 437.131 180.321, 437.116 180.142, 435.560 177.750 C 434.130 175.553, 431.940 174.008, 432.015 175.250 M 441.188 189 C 449.042 209.975, 439.608 240.476, 421.129 253.851 C 415.281 258.084, 403.423 263.577, 395.956 265.512 C 392.334 266.450, 385.462 267.004, 377.356 267.012 C 357.636 267.030, 351.075 269.396, 339.477 280.672 C 331.645 288.286, 319.505 299.050, 317.292 300.342 C 313.509 302.550, 314.696 296.662, 319.120 291.268 C 321.414 288.472, 321.139 288.643, 318.056 291.934 C 314.586 295.637, 313.951 296.940, 314.201 299.835 C 314.620 304.691, 318.639 307.670, 322.810 306.216 C 324.499 305.627, 332.043 298.833, 340.162 290.587 C 352.786 277.766, 354.917 276, 357.763 276 C 362.233 276, 362.059 278.800, 357.250 284.225 C 353.966 287.929, 353.842 288.238, 356.250 286.705 C 357.762 285.742, 359 285.205, 359 285.512 C 359 288.269, 342.107 306.495, 326.207 320.892 C 320.546 326.018, 313.404 333.319, 310.336 337.117 C 307.268 340.914, 303.175 344.772, 301.241 345.690 L 297.725 347.359 299.973 349.179 C 304.888 353.159, 305.634 352.613, 334.331 324 C 349.970 308.407, 362.182 297, 363.236 297 C 364.241 297, 365.305 297.631, 365.601 298.403 C 366.459 300.639, 362.427 307.479, 358.034 311.238 C 355.816 313.138, 354 315.004, 354 315.386 C 354 315.768, 355.238 314.910, 356.750 313.478 C 358.262 312.047, 360.302 310.430, 361.282 309.885 C 362.856 309.011, 362.986 309.222, 362.394 311.698 C 361.194 316.711, 359.938 318.348, 348.643 329.618 C 342.514 335.733, 334.276 344.058, 330.336 348.118 C 316.509 362.365, 305.036 373, 303.493 373 C 302.636 373, 301.529 371.988, 301.031 370.750 C 300.534 369.512, 300.098 369.092, 300.063 369.816 C 300.029 370.539, 300.484 372.036, 301.075 373.141 C 301.980 374.832, 302.773 375.045, 306.078 374.487 C 308.238 374.122, 311.049 373.709, 312.324 373.569 C 313.804 373.406, 321.160 366.839, 332.665 355.407 C 342.577 345.558, 352.670 335.692, 355.093 333.482 C 357.517 331.273, 362.533 326.160, 366.240 322.121 C 372.064 315.776, 373.321 314.864, 375.490 315.408 C 377.438 315.897, 378 316.678, 378 318.896 C 378 321.211, 376.093 323.586, 367.975 331.377 C 362.461 336.670, 358.266 341, 358.653 341 C 359.040 341, 362.968 337.512, 367.383 333.250 C 373.717 327.134, 375.490 325.884, 375.791 327.320 C 376.441 330.412, 371.985 335.805, 352.399 355.628 C 333.280 374.978, 329.608 378.090, 328.660 375.742 C 328.384 375.059, 328.122 374.976, 328.079 375.559 C 327.917 377.736, 330.737 380.232, 333.757 380.583 C 336.560 380.910, 337.578 380.165, 343.690 373.315 C 347.436 369.117, 351.288 364.979, 352.250 364.119 C 354.395 362.203, 354.530 360.859, 352.500 361.638 C 351.675 361.955, 351 361.716, 351 361.107 C 351 360.498, 351.337 360.053, 351.750 360.118 C 354.964 360.626, 357.877 359.843, 357.400 358.600 C 357.077 357.758, 357.456 357.259, 358.350 357.350 C 359.169 357.432, 366.611 350.829, 374.890 342.677 C 386.696 331.049, 390.433 327.923, 392.221 328.177 C 393.823 328.404, 394.590 329.270, 394.801 331.093 C 395.057 333.290, 392.314 336.413, 376.801 351.588 C 366.736 361.435, 361.650 366.713, 365.500 363.318 C 369.350 359.922, 376.766 352.837, 381.980 347.572 C 387.194 342.307, 391.768 338, 392.144 338 C 392.520 338, 392.528 339.012, 392.164 340.250 C 390.665 345.333, 386.315 350.907, 378.312 358 C 373.658 362.125, 368.647 367.259, 367.175 369.409 C 365.704 371.559, 363.241 374.250, 361.702 375.390 C 359.297 377.171, 358.772 377.254, 357.967 375.981 C 357.151 374.690, 357.029 374.699, 357.015 376.050 C 356.987 378.950, 359.178 380.149, 361.186 378.331 C 362.336 377.291, 363 377.126, 363 377.880 C 363 378.747, 363.526 378.789, 364.934 378.035 C 367.503 376.660, 368.281 376.729, 367.367 378.250 C 366.065 380.418, 369.968 376.881, 380.925 365.964 C 386.741 360.169, 395.450 351.709, 400.278 347.164 C 405.321 342.417, 408.766 338.430, 408.374 337.796 C 407.948 337.107, 408.151 336.976, 408.915 337.448 C 410.230 338.260, 416.290 332.279, 415.480 330.968 C 415.228 330.560, 415.692 329.671, 416.511 328.991 C 417.330 328.311, 418 327.328, 418 326.806 C 418 326.284, 418.734 325.123, 419.632 324.225 C 421.141 322.716, 421.208 322.770, 420.518 324.944 C 419.894 326.908, 420.408 326.659, 423.636 323.431 C 425.761 321.305, 427.360 318.954, 427.188 318.205 C 427.017 317.457, 427.698 316.630, 428.701 316.368 C 430.517 315.893, 433.830 311.317, 435.123 307.500 C 435.496 306.400, 435.845 306.063, 435.900 306.750 C 435.955 307.438, 436.502 308, 437.117 308 C 437.741 308, 438.003 307.118, 437.710 305.999 C 437.422 304.898, 437.595 304.249, 438.093 304.558 C 438.592 304.866, 439 304.656, 439 304.090 C 439 303.525, 439.727 303.342, 440.616 303.683 C 441.993 304.211, 442.062 303.984, 441.081 302.152 C 440.266 300.629, 440.249 300, 441.024 300 C 441.626 300, 441.859 299.581, 441.543 299.069 C 441.226 298.557, 442.100 296.916, 443.484 295.423 C 446.093 292.607, 446.671 291, 445.073 291 C 444.564 291, 443.941 291.788, 443.689 292.750 C 443.437 293.712, 443.397 291.940, 443.598 288.811 C 443.800 285.682, 444.820 281.601, 445.864 279.742 C 446.909 277.882, 448.091 274.421, 448.492 272.049 C 448.997 269.059, 449.483 268.161, 450.079 269.119 C 450.655 270.046, 450.865 269.513, 450.719 267.500 C 450.587 265.687, 450.954 264.585, 451.647 264.716 C 452.325 264.843, 452.586 264.132, 452.284 262.978 C 451.964 261.753, 452.375 260.793, 453.387 260.405 C 454.274 260.065, 455 258.961, 455 257.952 C 455 256.943, 455.468 255.829, 456.040 255.475 C 456.721 255.054, 456.844 255.775, 456.395 257.561 C 455.722 260.245, 455.741 260.259, 457.605 258.373 C 460.477 255.469, 462.218 249.703, 461.106 246.779 C 460.591 245.425, 459.930 243.008, 459.636 241.409 C 459.343 239.809, 458.464 236.700, 457.683 234.500 C 456.903 232.300, 455.998 229.150, 455.673 227.500 L 455.082 224.500 456.499 227.500 C 457.860 230.381, 457.896 230.261, 457.414 224.500 C 457.137 221.200, 456.467 218.345, 455.925 218.156 C 454.290 217.587, 450.329 208.795, 449.614 204.149 C 449.060 200.548, 445.648 193.690, 440.088 185 C 439.560 184.175, 440.055 185.975, 441.188 189 M 435.774 195.500 C 436.050 201.550, 436.438 206.688, 436.638 206.917 C 437.339 207.723, 436.875 192.453, 436.079 188.500 C 435.576 186.006, 435.461 188.641, 435.774 195.500 M 338.385 201 C 338.385 207.875, 338.545 210.688, 338.740 207.250 C 338.936 203.813, 338.936 198.188, 338.740 194.750 C 338.545 191.313, 338.385 194.125, 338.385 201 M 139.232 197.750 C 136.643 201.489, 135.802 203, 136.308 203 C 136.542 203, 137.925 201.200, 139.381 199 C 142.340 194.529, 142.211 193.448, 139.232 197.750 M 273.286 205.500 C 273.294 208.250, 273.488 209.256, 273.718 207.736 C 273.947 206.216, 273.941 203.966, 273.704 202.736 C 273.467 201.506, 273.279 202.750, 273.286 205.500 M 133.174 208.367 C 131.978 210.760, 131.012 213.120, 131.026 213.610 C 131.040 214.099, 132.180 212.303, 133.559 209.617 C 134.938 206.931, 135.905 204.572, 135.707 204.374 C 135.509 204.176, 134.369 205.973, 133.174 208.367 M 434.351 213.031 C 433.728 216.039, 433.364 218.658, 433.543 218.851 C 434.121 219.475, 436.128 210.904, 435.801 209.206 C 435.627 208.302, 434.975 210.023, 434.351 213.031 M 253.382 223.500 C 253.384 230.100, 253.546 232.670, 253.741 229.211 C 253.937 225.752, 253.936 220.352, 253.738 217.211 C 253.540 214.070, 253.380 216.900, 253.382 223.500 M 127.954 222.149 C 126.499 227.527, 127.201 254.374, 128.891 258 L 130.056 260.500 129.462 258 C 128.267 252.970, 127.818 227.454, 128.848 223.027 C 130.201 217.206, 129.483 216.500, 127.954 222.149 M 427.097 230.560 C 425.942 232.518, 425.451 233.840, 426.005 233.497 C 427.089 232.827, 430.335 227, 429.624 227 C 429.390 227, 428.252 228.602, 427.097 230.560 M 164.754 232.500 C 165.897 234.150, 168.770 237.300, 171.138 239.500 C 174.788 242.892, 174.623 242.588, 170.047 237.500 C 162.814 229.458, 162.332 229.003, 164.754 232.500 M 260.286 238.500 C 260.294 241.250, 260.488 242.256, 260.718 240.736 C 260.947 239.216, 260.941 236.966, 260.704 235.736 C 260.467 234.506, 260.279 235.750, 260.286 238.500 M 185.370 249.147 C 186.880 250.024, 186.976 250.401, 185.870 251.102 C 184.963 251.676, 184.903 251.975, 185.691 251.985 C 187.572 252.009, 188.398 249.866, 186.878 248.904 C 186.120 248.423, 185.050 248.037, 184.500 248.046 C 183.950 248.054, 184.341 248.550, 185.370 249.147 M 320.762 249.707 C 322.006 249.946, 323.806 249.937, 324.762 249.687 C 325.718 249.437, 324.700 249.241, 322.500 249.252 C 320.300 249.263, 319.518 249.468, 320.762 249.707 M 117.037 254.500 C 115.334 258.591, 115.607 287.402, 117.478 301.003 C 119.694 317.111, 122.952 334.080, 124.477 337.457 C 125.951 340.721, 128.090 349.128, 128.345 352.655 C 128.430 353.839, 128.838 354.600, 129.250 354.345 C 129.662 354.091, 130 354.584, 130 355.441 C 130 356.298, 130.502 357, 131.117 357 C 131.741 357, 132.003 357.882, 131.710 359.001 C 131.422 360.102, 131.537 360.786, 131.965 360.522 C 132.393 360.257, 133.510 362.169, 134.447 364.770 C 135.384 367.372, 137.242 371.756, 138.576 374.514 C 139.909 377.272, 141 380.069, 141 380.729 C 141 381.389, 141.900 382.411, 143 383 C 144.100 383.589, 145 384.674, 145 385.413 C 145 386.151, 145.749 387.373, 146.666 388.128 C 149.202 390.218, 155.164 399.925, 154.536 400.942 C 154.231 401.435, 154.661 402.518, 155.491 403.348 C 156.321 404.178, 157 405.394, 157 406.051 C 157 406.939, 157.345 406.958, 158.348 406.126 C 159.382 405.268, 160.139 405.526, 161.598 407.236 C 162.769 408.608, 162.888 408.995, 161.908 408.241 C 161.032 407.568, 160.023 407.311, 159.664 407.669 C 158.665 408.668, 162.846 411.213, 164.156 410.403 C 164.839 409.982, 165.038 410.129, 164.646 410.764 C 164.253 411.399, 165.211 412.107, 166.991 412.498 C 168.646 412.862, 170 413.573, 170 414.079 C 170 414.586, 170.689 415, 171.531 415 C 172.374 415, 173.322 415.675, 173.638 416.500 C 173.955 417.325, 174.953 418.007, 175.857 418.015 C 177.285 418.029, 177.303 418.160, 176 419.014 C 174.943 419.707, 175.499 419.805, 177.884 419.347 C 180.531 418.838, 181.167 419.002, 180.806 420.098 C 180.551 420.869, 179.329 421.649, 178.090 421.830 C 175.947 422.144, 175.927 422.228, 177.669 423.548 C 179.374 424.841, 179.379 424.939, 177.750 424.968 C 175.817 425.003, 175.586 425.798, 176.904 427.878 C 177.384 428.636, 178.277 428.947, 178.888 428.569 C 179.500 428.191, 180 428.377, 180 428.983 C 180 429.588, 180.900 431.050, 182 432.230 C 183.100 433.411, 184 433.998, 184 433.534 C 184 433.070, 184.787 433.366, 185.750 434.193 C 186.713 435.019, 188.175 436.076, 189 436.540 C 190.333 437.290, 190.333 437.178, 189 435.529 C 187.766 434.004, 187.751 433.758, 188.914 434.142 C 189.692 434.399, 191.042 435.691, 191.914 437.012 C 192.863 438.449, 192.998 439.107, 192.250 438.648 C 190.470 437.557, 190.701 439.558, 192.571 441.429 C 193.436 442.293, 193.868 443, 193.532 443 C 193.196 443, 193.499 443.619, 194.205 444.375 C 194.912 445.131, 196.128 445.504, 196.909 445.205 C 197.689 444.905, 198.073 445.074, 197.761 445.580 C 197.450 446.086, 198.501 446.594, 200.097 446.710 C 201.694 446.825, 203 446.552, 203 446.103 C 203 445.654, 204.349 445.335, 205.998 445.394 C 207.646 445.452, 208.996 445.825, 208.998 446.222 C 208.999 446.619, 211.736 448.302, 215.080 449.961 C 218.423 451.620, 222.430 453.882, 223.984 454.989 C 225.538 456.095, 227.461 457, 228.258 457 C 229.056 457, 230.949 458.150, 232.465 459.555 C 233.982 460.961, 235.503 461.831, 235.845 461.488 C 236.673 460.661, 223.320 448.252, 219.500 446.298 C 217.850 445.455, 214.250 443.092, 211.500 441.048 C 208.750 439.004, 204.362 436.437, 201.748 435.344 C 195.373 432.679, 192 429.598, 192 426.441 C 192 425.026, 191.549 423.025, 190.997 421.994 C 190.115 420.347, 190.328 420.159, 192.747 420.446 C 194.261 420.625, 196.030 420.823, 196.679 420.886 C 197.327 420.949, 198.538 421.681, 199.370 422.513 C 201.039 424.182, 216 425.300, 216 423.756 C 216 423.275, 216.385 423.120, 216.855 423.410 C 217.325 423.701, 218.749 422.832, 220.020 421.479 C 221.986 419.386, 222.163 418.653, 221.208 416.558 C 219.598 413.024, 215.584 411.348, 206.806 410.544 C 198.610 409.794, 196.633 408.616, 197.173 404.805 C 197.465 402.746, 198.113 402.468, 203.250 402.200 C 206.412 402.035, 209 401.473, 209 400.950 C 209 400.428, 211.363 400.061, 214.250 400.136 C 217.137 400.211, 218.375 400.474, 217 400.721 C 215.625 400.968, 214.072 401.581, 213.550 402.085 C 212.973 402.641, 216.196 403, 221.769 403 C 229.214 403, 230.836 402.737, 230.400 401.601 C 229.952 400.432, 233.282 400.179, 250.599 400.063 C 268.897 399.940, 271.488 399.723, 272.636 398.212 C 274.504 395.752, 274.293 393.293, 272.017 391.017 C 270.125 389.125, 268.691 389.039, 240.767 389.138 C 202.604 389.273, 198 388.608, 198 382.965 L 198 380 221.375 380 C 234.231 380, 246.269 379.682, 248.125 379.292 L 251.500 378.585 248.500 377.911 C 246.850 377.540, 251.864 377.183, 259.643 377.118 C 271.368 377.020, 273.884 377.256, 274.362 378.500 C 274.758 379.532, 276.371 380, 279.534 380 C 285.247 380, 287.387 378.895, 288.942 375.141 C 289.949 372.710, 289.882 371.672, 288.553 369.103 C 287.671 367.396, 286.848 365.908, 286.724 365.796 C 286.601 365.683, 266.025 365.346, 241 365.046 L 195.500 364.500 195.822 361.750 C 195.998 360.238, 195.476 358.334, 194.662 357.519 C 193.252 356.109, 187.485 353.897, 181.938 352.638 C 180.528 352.318, 176.918 349.906, 173.914 347.278 C 170.911 344.650, 167.322 341.600, 165.939 340.500 C 164.556 339.400, 159.061 332.343, 153.727 324.818 C 148.394 317.293, 143.580 310.858, 143.030 310.519 C 141.997 309.880, 136.648 300.988, 130.987 290.500 C 126.015 281.288, 120.936 267.309, 119.543 259 C 118.313 251.666, 118.258 251.567, 117.037 254.500 M 397.500 252.974 C 396.400 253.435, 393.925 254.279, 392 254.849 L 388.500 255.886 392.500 255.312 C 394.700 254.995, 397.625 254.139, 399 253.408 C 401.747 251.949, 400.681 251.640, 397.500 252.974 M 173.170 254.675 C 169.689 255.499, 167.036 256.370, 167.276 256.609 C 167.792 257.126, 179.951 254.383, 180.768 253.565 C 181.544 252.789, 180.481 252.944, 173.170 254.675 M 324.250 255.735 C 326.863 255.941, 331.137 255.941, 333.750 255.735 C 336.363 255.529, 334.225 255.360, 329 255.360 C 323.775 255.360, 321.637 255.529, 324.250 255.735 M 377.250 256.728 C 379.313 256.944, 382.688 256.944, 384.750 256.728 C 386.813 256.513, 385.125 256.336, 381 256.336 C 376.875 256.336, 375.188 256.513, 377.250 256.728 M 471 258.441 C 471 259.234, 471.450 260.160, 472 260.500 C 472.550 260.840, 473 260.191, 473 259.059 C 473 257.927, 472.550 257, 472 257 C 471.450 257, 471 257.648, 471 258.441 M 355 260.500 C 351.734 262.367, 352.877 262.388, 357.135 260.539 C 358.986 259.736, 359.825 259.077, 359 259.075 C 358.175 259.073, 356.375 259.714, 355 260.500 M 183.750 261.162 C 181.862 261.852, 181.022 262.846, 181.070 264.333 C 181.134 266.299, 181.209 266.327, 181.876 264.630 C 182.280 263.601, 183.936 262.175, 185.555 261.461 C 189.027 259.930, 187.717 259.714, 183.750 261.162 M 292.336 269 C 292.336 273.125, 292.513 274.813, 292.728 272.750 C 292.944 270.688, 292.944 267.313, 292.728 265.250 C 292.513 263.188, 292.336 264.875, 292.336 269 M 165.381 265.541 C 164.048 267.576, 163.939 268.572, 164.837 270.541 C 166.693 274.615, 175 273.094, 175 268.680 C 175 263.339, 168.264 261.141, 165.381 265.541 M 299.286 268.500 C 299.294 271.250, 299.488 272.256, 299.718 270.736 C 299.947 269.216, 299.941 266.966, 299.704 265.736 C 299.467 264.506, 299.279 265.750, 299.286 268.500 M 132.375 268 C 133.253 271.247, 136.273 278.060, 136.662 277.671 C 136.889 277.444, 135.926 274.838, 134.522 271.879 C 133.118 268.921, 132.152 267.175, 132.375 268 M 158.252 270.500 C 158.263 272.700, 158.468 273.482, 158.707 272.238 C 158.946 270.994, 158.937 269.194, 158.687 268.238 C 158.437 267.282, 158.241 268.300, 158.252 270.500 M 253.476 276 C 265.581 288.871, 265.781 289.065, 262.247 284.500 C 260.544 282.300, 255.863 277.350, 251.846 273.500 C 245.042 266.979, 245.153 267.151, 253.476 276 M 332.477 279.250 L 324.500 287.500 332.750 279.523 C 340.412 272.115, 341.456 271, 340.727 271 C 340.576 271, 336.864 274.712, 332.477 279.250 M 161.345 279.235 C 161.980 279.639, 164.300 279.969, 166.500 279.969 C 168.700 279.969, 171.020 279.639, 171.655 279.235 C 172.289 278.831, 169.970 278.500, 166.500 278.500 C 163.030 278.500, 160.711 278.831, 161.345 279.235 M 201.872 280.661 C 200.620 282.176, 200.692 282.202, 202.694 280.955 C 204.619 279.756, 205.171 279.829, 207.194 281.544 L 209.500 283.500 207.595 281.250 C 205.329 278.573, 203.733 278.409, 201.872 280.661 M 240.427 282.743 C 242.037 284.523, 243.575 285.759, 243.844 285.490 C 244.113 285.220, 244.146 284.887, 243.917 284.750 C 243.688 284.613, 242.150 283.377, 240.500 282.004 L 237.500 279.507 240.427 282.743 M 138 281.778 C 138 282.389, 139.166 284.151, 140.592 285.694 L 143.183 288.500 140.916 285 C 137.963 280.443, 138 280.484, 138 281.778 M 241.500 294 C 245.320 297.850, 248.671 301, 248.946 301 C 249.221 301, 246.320 297.850, 242.500 294 C 238.680 290.150, 235.329 287, 235.054 287 C 234.779 287, 237.680 290.150, 241.500 294 M 254.500 296 C 258.874 300.400, 262.678 304, 262.953 304 C 263.228 304, 259.874 300.400, 255.500 296 C 251.126 291.600, 247.322 288, 247.047 288 C 246.772 288, 250.126 291.600, 254.500 296 M 338 302.278 C 330.025 310.100, 324.850 315.456, 326.500 314.180 C 329.560 311.814, 353 288.957, 353 288.339 C 353 287.614, 352.061 288.487, 338 302.278 M 151.500 298 C 160.322 306.863, 161 307.471, 161 306.523 C 161 305.898, 143.675 289, 143.034 289 C 142.763 289, 146.573 293.050, 151.500 298 M 385.438 292.068 C 383.729 293.957, 383.697 294.370, 385.067 296.818 C 387.672 301.476, 394 300.565, 394 295.533 C 394 293.050, 391.148 290, 388.826 290 C 387.992 290, 386.468 290.931, 385.438 292.068 M 224.177 294.903 C 224.355 295.366, 228.099 299.514, 232.498 304.122 C 236.897 308.730, 239.840 311.600, 239.038 310.500 C 237.069 307.801, 223.770 293.843, 224.177 294.903 M 282.958 305.250 C 285.410 307.863, 287.548 310, 287.708 310 C 288.459 310, 287.665 309.102, 283.250 304.958 L 278.500 300.500 282.958 305.250 M 477.286 307.500 C 477.294 310.250, 477.488 311.256, 477.718 309.736 C 477.947 308.216, 477.941 305.966, 477.704 304.736 C 477.467 303.506, 477.279 304.750, 477.286 307.500 M 268 309.500 C 269.866 311.425, 271.617 313, 271.892 313 C 272.167 313, 270.866 311.425, 269 309.500 C 267.134 307.575, 265.383 306, 265.108 306 C 264.833 306, 266.134 307.575, 268 309.500 M 164.500 310.881 C 171.747 318.834, 185.881 329.714, 201.629 339.464 C 204.262 341.094, 209.472 345.311, 213.208 348.835 C 221.064 356.246, 222.280 356.607, 215.127 349.406 C 207.327 341.552, 200.255 336.178, 194 333.351 C 190.664 331.844, 177.867 322.034, 168.815 314.045 C 164.792 310.494, 162.850 309.071, 164.500 310.881 M 202.200 310.200 C 201.540 310.860, 201.029 312.097, 201.063 312.950 C 201.100 313.852, 201.522 313.512, 202.073 312.138 C 202.835 310.235, 203.589 309.859, 205.956 310.207 C 207.572 310.444, 208.667 310.270, 208.388 309.819 C 207.626 308.586, 203.564 308.836, 202.200 310.200 M 212.921 315.687 C 216.374 320.281, 232.778 335.556, 233.491 334.842 C 233.736 334.597, 230.523 331.495, 226.351 327.948 C 222.179 324.402, 216.742 319.250, 214.269 316.500 C 210.373 312.167, 210.193 312.059, 212.921 315.687 M 251.500 323 C 257.531 329.050, 262.691 334, 262.966 334 C 263.241 334, 258.531 329.050, 252.500 323 C 246.469 316.950, 241.309 312, 241.034 312 C 240.759 312, 245.469 316.950, 251.500 323 M 272 323.500 C 278.307 329.825, 283.692 335, 283.967 335 C 284.242 335, 279.307 329.825, 273 323.500 C 266.693 317.175, 261.308 312, 261.033 312 C 260.758 312, 265.693 317.175, 272 323.500 M 207.538 321.031 C 210.817 324.622, 213.704 327.418, 213.953 327.244 C 214.203 327.069, 211.520 324.131, 207.992 320.713 L 201.576 314.500 207.538 321.031 M 315.469 323.250 L 309.500 329.500 315.750 323.531 C 321.556 317.987, 322.458 317, 321.719 317 C 321.564 317, 318.751 319.813, 315.469 323.250 M 351 318.282 C 350.175 318.952, 348.842 320.400, 348.038 321.500 C 347.234 322.600, 348.022 322.178, 349.788 320.563 C 352.668 317.929, 353.501 316.936, 352.750 317.032 C 352.613 317.049, 351.825 317.612, 351 318.282 M 293 319.762 C 293 320.364, 292.271 321.586, 291.381 322.476 C 290.490 323.367, 290.005 324.338, 290.301 324.634 C 290.598 324.931, 291.612 323.995, 292.556 322.556 C 293.499 321.116, 293.985 319.652, 293.635 319.302 C 293.286 318.953, 293 319.160, 293 319.762 M 339.137 329.552 C 338.033 330.956, 329.113 339.779, 319.315 349.157 C 309.517 358.536, 301.339 366.647, 301.141 367.181 C 300.944 367.715, 307.513 361.599, 315.739 353.590 C 323.965 345.581, 331.857 338.114, 333.277 336.997 C 335.942 334.900, 342.564 327, 341.657 327 C 341.375 327, 340.242 328.149, 339.137 329.552 M 252.958 334.250 C 257.102 338.665, 258 339.459, 258 338.708 C 258 338.548, 255.863 336.410, 253.250 333.958 L 248.500 329.500 252.958 334.250 M 302.462 335.250 L 297.500 340.500 302.750 335.538 C 307.628 330.926, 308.459 330, 307.712 330 C 307.554 330, 305.192 332.363, 302.462 335.250 M 240 341.500 C 242.987 344.525, 245.657 347, 245.932 347 C 246.207 347, 243.987 344.525, 241 341.500 C 238.013 338.475, 235.343 336, 235.068 336 C 234.793 336, 237.013 338.475, 240 341.500 M 228.076 341.122 C 230.509 343.530, 232.692 345.383, 232.927 345.240 C 233.569 344.848, 227.782 338.981, 225.576 337.786 C 224.518 337.212, 225.643 338.714, 228.076 341.122 M 355.131 343.756 C 354.563 344.816, 348.789 350.563, 342.300 356.528 C 335.810 362.492, 330.102 368.076, 329.616 368.936 C 329.129 369.796, 330.479 368.842, 332.616 366.815 C 334.752 364.788, 341.225 358.642, 347 353.158 C 352.775 347.674, 357.199 342.881, 356.831 342.508 C 356.463 342.134, 355.698 342.696, 355.131 343.756 M 275.217 346.513 C 277.261 348.651, 279.095 350.197, 279.294 349.950 C 279.492 349.702, 277.819 347.953, 275.577 346.063 L 271.500 342.626 275.217 346.513 M 252.162 353.337 C 257.898 359.074, 261.332 360.341, 264.948 358.053 C 265.893 357.455, 264.962 357.330, 262.268 357.691 C 258.376 358.213, 257.805 357.941, 252.320 352.959 L 246.500 347.674 252.162 353.337 M 266.921 352.249 C 266.623 354.399, 266.776 355.624, 267.279 355.121 C 267.762 354.638, 267.995 352.951, 267.798 351.372 C 267.468 348.728, 267.399 348.798, 266.921 352.249 M 123.555 354.237 C 124.033 358.012, 124.827 358.878, 126.060 356.971 C 127.448 354.825, 126.760 351.718, 124.836 351.442 C 123.528 351.253, 123.254 351.853, 123.555 354.237 M 221 355.550 C 221 356.880, 226.262 357.943, 227.829 356.930 C 229.355 355.943, 229.348 355.896, 227.741 356.396 C 226.774 356.698, 224.862 356.518, 223.491 355.997 C 222.121 355.476, 221 355.275, 221 355.550 M 134.022 378.628 C 134.010 379.248, 134.695 380.332, 135.546 381.038 C 136.396 381.743, 136.887 382.852, 136.638 383.501 C 135.705 385.931, 137.517 386.691, 139.500 384.701 C 141.206 382.989, 141.242 382.785, 139.750 383.315 C 138.787 383.657, 137.990 383.614, 137.978 383.219 C 137.939 381.967, 134.046 377.448, 134.022 378.628 M 141.482 387.057 C 140.934 388.782, 140.590 388.962, 139.906 387.882 C 139.425 387.122, 139.024 386.962, 139.015 387.527 C 139.007 388.093, 139.701 389.555, 140.557 390.777 C 141.413 392, 141.652 393, 141.088 393 C 140.524 393, 140.321 393.672, 140.636 394.494 C 140.952 395.316, 141.689 395.692, 142.275 395.330 C 142.936 394.922, 143.105 395.284, 142.721 396.285 C 142.292 397.403, 142.535 397.732, 143.513 397.357 C 144.289 397.059, 145.227 395.844, 145.597 394.658 C 145.967 393.471, 146.686 392.232, 147.194 391.904 C 147.703 391.576, 146.967 390.553, 145.560 389.631 C 143.335 388.173, 143 388.153, 143 389.477 C 143 390.315, 142.550 391, 142 391 C 140.724 391, 140.740 390.354, 142.081 387.849 C 142.676 386.738, 142.942 385.608, 142.672 385.339 C 142.403 385.070, 141.867 385.843, 141.482 387.057 M 375.264 387.718 C 376.784 387.947, 379.034 387.941, 380.264 387.704 C 381.494 387.467, 380.250 387.279, 377.500 387.286 C 374.750 387.294, 373.744 387.488, 375.264 387.718 M 292.264 388.718 C 293.784 388.947, 296.034 388.941, 297.264 388.704 C 298.494 388.467, 297.250 388.279, 294.500 388.286 C 291.750 388.294, 290.744 388.488, 292.264 388.718 M 284.951 393.091 C 284.115 394.653, 284.140 395.924, 285.051 398.123 C 285.721 399.741, 286.450 400.883, 286.672 400.661 C 286.894 400.440, 286.562 399.132, 285.935 397.756 C 285.082 395.884, 285.081 394.717, 285.932 393.126 C 286.558 391.957, 286.845 391, 286.570 391 C 286.295 391, 285.567 391.941, 284.951 393.091 M 369.709 399.552 C 371.474 400.943, 374.098 403.526, 375.540 405.291 C 376.982 407.056, 377.699 407.561, 377.134 406.414 C 376.027 404.170, 368.481 396.993, 367.247 397.011 C 366.836 397.017, 367.944 398.160, 369.709 399.552 M 237 402.040 C 235.475 402.504, 238.758 402.840, 245.417 402.900 C 251.421 402.955, 256.123 402.790, 255.866 402.533 C 255.008 401.674, 239.533 401.270, 237 402.040 M 298.280 404.736 C 300.909 404.943, 304.959 404.940, 307.280 404.731 C 309.601 404.521, 307.450 404.352, 302.500 404.355 C 297.550 404.358, 295.651 404.530, 298.280 404.736 M 239.750 411.732 C 242.088 411.943, 245.912 411.943, 248.250 411.732 C 250.588 411.522, 248.675 411.349, 244 411.349 C 239.325 411.349, 237.412 411.522, 239.750 411.732 M 306.292 412.742 C 310.027 412.935, 315.877 412.934, 319.292 412.739 C 322.706 412.545, 319.650 412.387, 312.500 412.389 C 305.350 412.390, 302.556 412.550, 306.292 412.742 M 380.039 416.327 C 379.983 418.927, 385.316 423.913, 388.923 424.635 C 391.597 425.169, 391.898 425.559, 391.344 427.767 L 390.711 430.289 392.855 428.145 C 395.804 425.196, 395.543 424, 391.950 424 C 387.491 424, 383.046 421.323, 381.464 417.685 C 380.584 415.663, 380.064 415.167, 380.039 416.327 M 356.204 427.045 C 354.851 429.212, 352.010 429.552, 348.684 427.945 C 346.574 426.926, 346.566 426.943, 348.441 428.445 C 351.101 430.576, 354.333 430.395, 356.506 427.994 C 357.504 426.890, 358.119 425.786, 357.873 425.539 C 357.626 425.293, 356.875 425.970, 356.204 427.045 M 298.776 426.733 C 301.128 426.945, 304.728 426.942, 306.776 426.727 C 308.824 426.512, 306.900 426.339, 302.500 426.343 C 298.100 426.346, 296.424 426.522, 298.776 426.733 M 235.924 435.750 L 233.500 438.500 236.048 436.266 C 238.542 434.079, 239.208 434.025, 267.548 433.750 L 296.500 433.468 267.424 433.234 L 238.349 433 235.924 435.750 M 235.252 446 C 236.088 447.416, 237.764 448.580, 239.115 448.685 C 240.910 448.824, 241.024 448.735, 239.573 448.327 C 238.514 448.029, 236.775 446.821, 235.711 445.643 L 233.774 443.500 235.252 446 M 379.968 450.923 C 377.620 453.631, 373.486 457.051, 370.782 458.522 C 368.077 459.994, 366.103 461.437, 366.394 461.728 C 367.450 462.783, 377.073 455.691, 381.081 450.904 C 383.339 448.207, 384.973 446, 384.712 446 C 384.452 446, 382.317 448.215, 379.968 450.923 M 253.500 448.057 C 249.100 448.411, 263.397 448.702, 285.270 448.704 C 307.144 448.705, 324.855 448.521, 324.628 448.295 C 323.920 447.587, 261.922 447.379, 253.500 448.057 M 360.250 463.564 C 352.133 467.151, 350.490 468.022, 353 467.411 C 356.079 466.660, 365.881 462.174, 364.500 462.147 C 363.950 462.137, 362.038 462.774, 360.250 463.564 M 259.030 464.527 C 258.983 466.115, 261.977 470, 263.248 470 C 263.872 470, 263.677 469.438, 262.815 468.750 C 261.954 468.063, 260.756 466.600, 260.155 465.500 C 259.553 464.400, 259.047 463.962, 259.030 464.527 M 339.762 469.707 C 341.006 469.946, 342.806 469.937, 343.762 469.687 C 344.718 469.437, 343.700 469.241, 341.500 469.252 C 339.300 469.263, 338.518 469.468, 339.762 469.707 M 280.312 470.748 C 289.009 470.915, 302.959 470.915, 311.312 470.748 C 319.666 470.581, 312.550 470.444, 295.500 470.445 C 278.450 470.445, 271.616 470.582, 280.312 470.748" stroke="none" fill="#41b1e1" fill-rule="evenodd"/><path d="M 244.287 46.694 C 243.930 47.626, 244.454 51.338, 245.452 54.944 C 246.450 58.550, 247.178 64.111, 247.069 67.302 C 246.910 71.957, 247.378 73.970, 249.436 77.480 C 250.846 79.887, 252 83.083, 252 84.583 C 252 88.143, 258.270 94.177, 263.569 95.717 C 276.246 99.401, 285.530 98.521, 292.972 92.929 C 302.204 85.992, 303.739 84.427, 308.310 77.296 C 312.715 70.424, 317.160 66.995, 321.651 67.004 C 326.764 67.014, 333.825 74.826, 332.499 79.004 C 332.166 80.052, 330.030 81.942, 327.752 83.204 C 325.312 84.557, 321.426 88.376, 318.296 92.500 C 315.373 96.350, 311.248 101.075, 309.129 103 C 302.006 109.471, 294.147 116, 293.482 116 C 293.120 116, 290.508 113.975, 287.679 111.500 C 284.741 108.931, 281.536 107, 280.208 107 C 278.912 107, 278.156 106.557, 278.500 106 C 279.331 104.655, 278.188 104.738, 272.564 106.431 C 261.070 109.890, 261.086 117.079, 272.583 114.806 C 277.528 113.828, 277.871 113.920, 286.266 118.459 L 294.877 123.115 298.189 121.440 C 305.512 117.735, 312.716 110.961, 322.279 98.789 L 332.328 86 339.542 86 C 349.855 86, 351.957 82.600, 343.452 79.677 C 339.762 78.408, 339.424 77.960, 338.346 72.909 C 337.712 69.934, 337.149 67.925, 337.096 68.445 C 336.993 69.462, 330 62.199, 330 61.075 C 330 60.147, 336.159 58, 338.821 58 C 340.019 58, 341 58.450, 341 59 C 341 61.381, 342.912 59.678, 344.391 55.980 C 346.380 51.011, 346.456 47.112, 344.579 46.392 C 343.797 46.092, 339.859 48.078, 335.829 50.806 C 327.788 56.246, 322.410 59.112, 316.895 60.894 C 312.033 62.466, 305.739 68.024, 301.084 74.860 C 295.700 82.765, 293.842 84.274, 290.890 83.135 C 287.400 81.788, 284.490 78.235, 281.725 71.946 C 280.382 68.892, 277.848 64.757, 276.093 62.759 C 272.824 59.036, 249.480 45, 246.558 45 C 245.666 45, 244.645 45.762, 244.287 46.694 M 253 58.535 C 253 62.264, 255.698 65.745, 259.582 67.027 C 261.462 67.647, 263 68.522, 263 68.971 C 263 70.056, 260.404 71, 257.418 71 C 256.088 71, 255 71.480, 255 72.066 C 255 73.783, 257.148 77.351, 259.407 79.385 C 260.853 80.686, 261.113 81.408, 260.250 81.718 C 258.114 82.485, 258.865 84.709, 262.213 87.525 C 265.243 90.075, 265.883 90.204, 273.500 89.805 C 284.070 89.250, 284.831 88.708, 280.897 84.538 C 279.172 82.709, 276.514 78.257, 274.990 74.645 C 273.466 71.032, 271.607 67.480, 270.859 66.752 C 266.914 62.908, 256.062 56, 253.970 56 C 253.436 56, 253 57.141, 253 58.535 M 291.018 58.784 C 289.520 59.997, 288.781 61.749, 288.710 64.254 C 288.581 68.790, 289.352 69.656, 292.252 68.231 C 293.488 67.623, 295.625 66.817, 297 66.440 C 302.304 64.987, 303.362 62.362, 300 59 C 297.522 56.522, 293.919 56.436, 291.018 58.784 M 320.200 75.200 C 318.188 77.212, 318.836 78, 322.500 78 C 326.353 78, 327.070 76.643, 324.066 75.035 C 321.655 73.745, 321.655 73.745, 320.200 75.200 M 246.500 114.480 C 188.596 130.591, 145.644 163.591, 123.968 208.623 C 103.500 251.145, 97.678 300.274, 107.971 343.616 C 114.413 370.738, 131.525 402.056, 151 422.366 C 173.519 445.851, 199.135 462.040, 230.184 472.412 C 251.314 479.469, 258.704 480.190, 305.642 479.765 L 345.500 479.405 355.500 475.803 C 379.868 467.026, 390.022 462.321, 403.500 453.562 C 413.492 447.068, 427.156 435.625, 437.173 425.362 C 462.233 399.686, 478.996 364.544, 484.569 326 C 486.597 311.976, 486.108 283.319, 483.605 269.500 C 479.431 246.455, 470.915 220.547, 461.746 203 C 448.709 178.049, 429.490 156.513, 406.285 140.855 C 398.188 135.391, 376.588 124.720, 366.500 121.199 C 356.686 117.775, 338.859 113, 335.886 113 C 330.300 113, 330.890 118.446, 336.838 121.789 C 342.478 124.959, 343.623 126.596, 341.130 127.930 C 338.604 129.282, 256.918 129.410, 252.243 128.070 C 250.243 127.496, 249 127.496, 249 128.070 C 249 128.581, 247.714 129, 246.142 129 C 243.310 129, 243.275 129.074, 242.287 137.250 C 241.739 141.787, 241.557 145.950, 241.884 146.500 C 242.792 148.030, 242.070 245.330, 241.144 246.256 C 240.697 246.703, 232.719 247.161, 223.416 247.275 C 210.065 247.438, 205.431 247.137, 201.427 245.847 C 185.256 240.638, 172.735 228.984, 167.209 214 C 166.499 212.075, 165.652 205.325, 165.327 199 C 164.817 189.090, 165.036 186.394, 166.915 179.500 C 169.410 170.346, 173.554 163.519, 181.153 156.038 C 191.134 146.213, 200.698 142.120, 215.500 141.340 C 224.403 140.871, 226.322 141.091, 233 143.354 L 240.500 145.895 237.038 142.948 C 235.134 141.326, 234.009 139.993, 234.538 139.985 C 235.067 139.976, 234.874 139.573, 234.109 139.088 C 233.343 138.604, 231.668 138.322, 230.386 138.463 C 229.105 138.604, 228.295 138.332, 228.587 137.859 C 228.879 137.387, 228.191 137, 227.059 137 C 222.261 137, 225.538 132.113, 233.441 127.482 C 237.368 125.180, 238.925 124.829, 243.514 125.210 C 248.739 125.643, 249.119 125.502, 253.721 121.415 C 257.780 117.810, 258.334 116.894, 257.399 115.335 C 255.990 112.987, 252.774 112.734, 246.500 114.480 M 348.532 133.647 C 348.925 137.416, 349.442 140.838, 349.682 141.250 C 350.305 142.323, 354.802 142.176, 356.976 141.013 C 358.617 140.134, 363 134.109, 363 132.731 C 363 131.523, 355.965 128.170, 352.038 127.506 L 347.819 126.794 348.532 133.647 M 292.988 142.250 C 289.965 147.206, 289.677 150.711, 290.889 167.768 C 292.523 190.770, 292.337 203.721, 290.280 210.135 C 288.381 216.056, 280.634 231.289, 279.295 231.735 C 278.828 231.891, 276.926 230.749, 275.067 229.197 C 272.297 226.884, 271.805 225.911, 272.338 223.791 C 272.701 222.343, 274.461 220.335, 276.340 219.227 C 281.063 216.440, 282.152 211.569, 280.835 199.121 C 278.861 180.457, 274.093 167.545, 265.843 158.519 C 261.603 153.880, 255.913 150, 253.349 150 C 252.882 150, 252.595 173.737, 252.712 202.750 L 252.924 255.500 262.212 255.749 C 276.376 256.128, 275.621 255.635, 276.258 264.928 C 277.117 277.463, 282.613 287.481, 291.735 293.138 C 293.514 294.242, 295.764 294.890, 296.735 294.579 C 299.238 293.776, 308.694 284.493, 310.433 281.130 C 312.453 277.223, 316 263.323, 316 259.312 L 316 256 327 256 L 338 256 338.036 252.750 C 338.736 189.624, 338.526 150, 337.489 150 C 335.186 150, 328.077 155.984, 324.171 161.212 C 315.654 172.612, 312.148 183.340, 311.334 200.500 C 310.716 213.536, 312.027 217.903, 317.537 221.154 C 319.441 222.278, 321 223.728, 321 224.376 C 321 226.403, 318.004 229.947, 314.960 231.521 L 312.040 233.030 308.401 225.804 C 301.302 211.707, 301.584 213.532, 301.018 178 C 300.562 149.379, 300.288 145.112, 298.724 142.250 C 297.748 140.463, 296.504 139, 295.960 139 C 295.416 139, 294.079 140.463, 292.988 142.250 M 364 142.403 C 360.975 143.150, 356.925 144.047, 355 144.395 C 348.208 145.626, 348.516 144.202, 348.771 173.201 C 348.898 187.666, 349.002 210.188, 349.001 223.250 L 349 247 367.345 247 C 387.455 247, 391.956 246.146, 401.585 240.503 C 407.245 237.186, 416.106 228.290, 419.517 222.500 C 424.361 214.277, 425.403 209.397, 425.204 195.872 C 424.932 177.483, 421.125 167.358, 410.096 155.698 C 400.073 145.103, 378.391 138.849, 364 142.403 M 261.723 167.611 C 261.325 168.008, 261 180.183, 261 194.667 C 261 219.944, 261.077 221, 262.915 221 C 263.968 221, 266.668 218.912, 268.915 216.359 C 272.934 211.793, 273 211.596, 272.987 204.109 C 272.971 195.003, 270.024 179.906, 267.195 174.439 C 264.388 169.016, 262.577 166.756, 261.723 167.611 M 326.194 172.250 C 322.004 179.699, 320.236 186.037, 319.149 197.500 C 318.384 205.572, 318.479 208.175, 319.642 211 C 321.291 215.002, 328.599 222.366, 330.039 221.476 C 331.303 220.695, 331.337 167, 330.073 167 C 329.564 167, 327.818 169.363, 326.194 172.250 M 154.816 176.782 C 149.548 182.613, 137.633 199.817, 134.233 206.500 C 127.733 219.280, 126.698 224.348, 127.244 240.719 C 127.705 254.547, 127.964 256.113, 131.262 265 C 138.316 284.011, 139.027 285.121, 153.773 300.161 C 173.310 320.088, 182.471 327.616, 201.505 339.383 C 204.070 340.969, 209.519 345.373, 213.613 349.169 C 217.707 352.965, 222.194 356.504, 223.585 357.032 C 227.206 358.409, 231.540 355.923, 232.947 351.661 C 234.415 347.214, 233.175 344.131, 228.431 340.430 C 226.366 338.818, 219.576 332.325, 213.342 326 C 201.633 314.120, 199.887 310.870, 204.836 310.169 C 206.665 309.910, 209.171 311.867, 216.360 319.169 C 221.412 324.301, 232.832 335.363, 241.737 343.750 C 259.282 360.277, 261.579 361.515, 265.961 356.811 C 270.558 351.877, 268.075 347.436, 253.038 333.701 C 233.730 316.063, 216.986 299.397, 216.993 297.821 C 217 296.081, 219.532 293, 220.955 293 C 221.402 293, 225.082 296.430, 229.134 300.623 C 233.185 304.816, 243.468 315.054, 251.983 323.373 C 260.499 331.693, 269.949 341.035, 272.983 344.133 C 276.018 347.232, 279.293 350.032, 280.262 350.356 C 282.973 351.264, 286.792 349.035, 287.882 345.908 C 289.729 340.612, 287.551 337.262, 273.626 323.976 C 228.064 280.502, 227.804 280.235, 228.971 278.054 C 229.576 276.924, 230.960 276, 232.048 276 C 233.262 276, 241.256 283.047, 252.751 294.250 C 263.050 304.288, 274.610 315.538, 278.439 319.250 C 282.269 322.962, 286.232 326, 287.246 326 C 292.236 326, 296.135 316.865, 292.458 313.789 C 291.611 313.080, 280.023 301.664, 266.708 288.420 C 240.561 262.412, 237.690 260.301, 225.452 258.082 C 222.126 257.479, 214.476 256.941, 208.452 256.888 C 199.177 256.805, 196.237 257.195, 189.250 259.438 C 181.334 261.980, 181 262.209, 181 265.093 C 181 268.773, 179.038 272.708, 175.603 275.917 C 173.717 277.679, 171.589 278.436, 167.758 278.711 C 161.387 279.168, 160.103 278.408, 159.343 273.725 C 157.799 264.211, 162.249 258.069, 172.220 255.953 C 179.549 254.398, 187.300 251.600, 187.713 250.360 C 187.873 249.881, 185.640 248.409, 182.752 247.087 C 170.182 241.337, 158.056 224.309, 155.883 209.357 C 154.390 199.085, 156.041 184.067, 159.743 174.250 C 160.673 171.784, 158.170 173.070, 154.816 176.782 M 432.011 175.250 C 432.017 175.387, 432.714 177.750, 433.561 180.500 C 434.407 183.250, 435.363 190, 435.685 195.500 C 436.386 207.457, 434.009 218.701, 428.853 227.829 C 423.966 236.480, 414.173 245.394, 404.585 249.917 C 395.408 254.246, 389.266 255.693, 376.787 256.466 C 371.995 256.763, 365.468 257.614, 362.284 258.357 C 350.961 260.998, 350.008 261.727, 318.195 292.084 C 314.478 295.632, 313.932 296.677, 314.195 299.747 C 314.619 304.693, 318.601 307.683, 322.810 306.216 C 324.499 305.627, 332.043 298.833, 340.162 290.587 C 352.786 277.766, 354.917 276, 357.763 276 C 362.468 276, 362.060 279.246, 356.710 284.382 C 354.350 286.647, 346.792 293.900, 339.914 300.500 C 333.036 307.100, 321.418 317.900, 314.096 324.500 C 306.774 331.100, 299.932 337.573, 298.892 338.885 C 296.314 342.134, 296.517 345.608, 299.455 348.545 C 304.497 353.588, 305.037 353.208, 334.331 324 C 349.970 308.407, 362.182 297, 363.236 297 C 365.911 297, 366.377 299.361, 364.452 303.160 C 362.796 306.430, 346.489 322.997, 316.356 352.023 C 308.063 360.010, 300.966 367.531, 300.584 368.735 C 300.202 369.939, 300.398 371.875, 301.020 373.037 C 301.986 374.842, 302.725 375.053, 306.078 374.487 C 308.238 374.122, 311.049 373.709, 312.324 373.569 C 313.804 373.406, 321.160 366.839, 332.665 355.407 C 342.577 345.558, 352.670 335.692, 355.093 333.482 C 357.517 331.273, 362.533 326.160, 366.240 322.121 C 372.064 315.776, 373.321 314.864, 375.490 315.408 C 377.406 315.889, 377.998 316.684, 377.993 318.769 C 377.987 320.969, 374.828 324.620, 361.743 337.548 C 352.809 346.374, 342.125 356.707, 338 360.509 C 329.646 368.210, 328.087 370.329, 328.035 374.059 C 327.985 377.705, 330.139 380.162, 333.757 380.583 C 336.560 380.910, 337.578 380.165, 343.690 373.315 C 347.436 369.117, 351.288 364.979, 352.250 364.119 C 354.395 362.203, 354.530 360.859, 352.500 361.638 C 351.675 361.955, 351 361.716, 351 361.107 C 351 360.498, 351.337 360.053, 351.750 360.118 C 354.964 360.626, 357.877 359.843, 357.400 358.600 C 357.077 357.758, 357.456 357.259, 358.350 357.350 C 359.169 357.432, 366.611 350.829, 374.890 342.677 C 386.696 331.049, 390.433 327.923, 392.221 328.177 C 393.814 328.403, 394.590 329.271, 394.798 331.062 C 395.050 333.223, 392.113 336.545, 376.048 352.270 C 358.837 369.118, 357 371.239, 357 374.258 C 357 378.778, 358.779 380.510, 361.186 378.331 C 362.336 377.291, 363 377.126, 363 377.880 C 363 378.747, 363.526 378.789, 364.934 378.035 C 367.503 376.660, 368.281 376.729, 367.367 378.250 C 366.065 380.418, 369.968 376.881, 380.925 365.964 C 386.741 360.169, 395.450 351.709, 400.278 347.164 C 405.321 342.417, 408.766 338.430, 408.374 337.796 C 407.948 337.107, 408.151 336.976, 408.915 337.448 C 410.230 338.260, 416.290 332.279, 415.480 330.968 C 415.228 330.560, 415.692 329.671, 416.511 328.991 C 417.330 328.311, 418 327.328, 418 326.806 C 418 326.284, 418.734 325.123, 419.632 324.225 C 421.141 322.716, 421.208 322.770, 420.518 324.944 C 419.894 326.908, 420.408 326.659, 423.636 323.431 C 425.761 321.305, 427.360 318.954, 427.188 318.205 C 427.017 317.457, 427.698 316.630, 428.701 316.368 C 430.517 315.893, 433.830 311.317, 435.123 307.500 C 435.496 306.400, 435.845 306.063, 435.900 306.750 C 435.955 307.438, 436.502 308, 437.117 308 C 437.741 308, 438.003 307.118, 437.710 305.999 C 437.422 304.898, 437.595 304.249, 438.093 304.558 C 438.592 304.866, 439 304.656, 439 304.090 C 439 303.525, 439.727 303.342, 440.616 303.683 C 441.993 304.211, 442.062 303.984, 441.081 302.152 C 440.266 300.629, 440.249 300, 441.024 300 C 441.626 300, 441.859 299.581, 441.543 299.069 C 441.226 298.557, 442.100 296.916, 443.484 295.423 C 446.093 292.607, 446.671 291, 445.073 291 C 444.564 291, 443.941 291.788, 443.689 292.750 C 443.437 293.712, 443.397 291.940, 443.598 288.811 C 443.800 285.682, 444.820 281.601, 445.864 279.742 C 446.909 277.882, 448.091 274.421, 448.492 272.049 C 448.997 269.059, 449.483 268.161, 450.079 269.119 C 450.655 270.046, 450.865 269.513, 450.719 267.500 C 450.587 265.687, 450.954 264.585, 451.647 264.716 C 452.325 264.843, 452.586 264.132, 452.284 262.978 C 451.964 261.753, 452.375 260.793, 453.387 260.405 C 454.274 260.065, 455 258.961, 455 257.952 C 455 256.943, 455.468 255.829, 456.040 255.475 C 456.721 255.054, 456.844 255.775, 456.395 257.561 C 455.722 260.245, 455.741 260.259, 457.605 258.373 C 460.477 255.469, 462.218 249.703, 461.106 246.779 C 460.591 245.425, 459.930 243.008, 459.636 241.409 C 459.343 239.809, 458.464 236.700, 457.683 234.500 C 456.903 232.300, 455.998 229.150, 455.673 227.500 L 455.082 224.500 456.499 227.500 C 457.860 230.381, 457.896 230.261, 457.414 224.500 C 457.137 221.200, 456.467 218.345, 455.925 218.156 C 454.281 217.584, 450.327 208.785, 449.604 204.090 C 449.231 201.665, 447.289 196.940, 445.290 193.590 C 437.983 181.350, 433.745 175, 432.883 175 C 432.397 175, 432.005 175.113, 432.011 175.250 M 291.531 226.632 L 287.668 234.139 291.848 238.319 L 296.028 242.499 299.514 238.694 C 301.431 236.601, 303 234.526, 303 234.083 C 303 232.741, 297.107 220.184, 296.220 219.636 C 295.765 219.355, 293.655 222.503, 291.531 226.632 M 261 238.500 L 261 249 268.500 249 L 276 249 276 244.188 C 276 239.908, 275.641 239.117, 272.750 237.027 C 270.962 235.735, 268.230 233.175, 266.677 231.339 C 261.814 225.586, 261 226.612, 261 238.500 M 324.381 233.464 C 322.116 235.863, 319.191 237.978, 317.881 238.163 C 315.681 238.474, 315.526 238.880, 315.838 243.500 C 316.024 246.250, 316.474 248.744, 316.838 249.042 C 317.202 249.341, 320.553 249.414, 324.285 249.206 L 331.070 248.826 330.785 239.244 C 330.628 233.963, 330.051 229.536, 329.500 229.381 C 328.950 229.227, 326.646 231.064, 324.381 233.464 M 303.104 245.535 C 298.649 250.608, 298.926 252.655, 304 252.171 L 308 251.790 308 246.895 C 308 244.203, 307.597 242, 307.104 242 C 306.611 242, 304.811 243.591, 303.104 245.535 M 283.630 245.250 C 283.299 246.488, 283.021 248.512, 283.014 249.750 C 283.002 251.752, 283.496 252, 287.500 252 C 291.294 252, 292 251.694, 292 250.051 C 292 248.406, 286.459 243, 284.772 243 C 284.476 243, 283.962 244.012, 283.630 245.250 M 117.037 254.500 C 115.334 258.591, 115.607 287.402, 117.478 301.003 C 119.694 317.111, 122.952 334.080, 124.477 337.457 C 125.951 340.721, 128.090 349.128, 128.345 352.655 C 128.430 353.839, 128.838 354.600, 129.250 354.345 C 129.662 354.091, 130 354.584, 130 355.441 C 130 356.298, 130.502 357, 131.117 357 C 131.741 357, 132.003 357.882, 131.710 359.001 C 131.422 360.102, 131.537 360.786, 131.965 360.522 C 132.393 360.257, 133.510 362.169, 134.447 364.770 C 135.384 367.372, 137.242 371.756, 138.576 374.514 C 139.909 377.272, 141 380.069, 141 380.729 C 141 381.389, 141.900 382.411, 143 383 C 144.100 383.589, 145 384.674, 145 385.413 C 145 386.151, 145.749 387.373, 146.666 388.128 C 149.202 390.218, 155.164 399.925, 154.536 400.942 C 154.231 401.435, 154.661 402.518, 155.491 403.348 C 156.321 404.178, 157 405.394, 157 406.051 C 157 406.939, 157.345 406.958, 158.348 406.126 C 159.382 405.268, 160.139 405.526, 161.598 407.236 C 162.769 408.608, 162.888 408.995, 161.908 408.241 C 161.032 407.568, 160.023 407.311, 159.664 407.669 C 158.665 408.668, 162.846 411.213, 164.156 410.403 C 164.839 409.982, 165.038 410.129, 164.646 410.764 C 164.253 411.399, 165.211 412.107, 166.991 412.498 C 168.646 412.862, 170 413.573, 170 414.079 C 170 414.586, 170.689 415, 171.531 415 C 172.374 415, 173.322 415.675, 173.638 416.500 C 173.955 417.325, 174.953 418.007, 175.857 418.015 C 177.285 418.029, 177.303 418.160, 176 419.014 C 174.943 419.707, 175.499 419.805, 177.884 419.347 C 180.531 418.838, 181.167 419.002, 180.806 420.098 C 180.551 420.869, 179.329 421.649, 178.090 421.830 C 175.947 422.144, 175.927 422.228, 177.669 423.548 C 179.374 424.841, 179.379 424.939, 177.750 424.968 C 175.817 425.003, 175.586 425.798, 176.904 427.878 C 177.384 428.636, 178.277 428.947, 178.888 428.569 C 179.500 428.191, 180 428.377, 180 428.983 C 180 429.588, 180.900 431.050, 182 432.230 C 183.100 433.411, 184 433.998, 184 433.534 C 184 433.070, 184.787 433.366, 185.750 434.193 C 186.713 435.019, 188.175 436.076, 189 436.540 C 190.333 437.290, 190.333 437.178, 189 435.529 C 187.766 434.004, 187.751 433.758, 188.914 434.142 C 189.692 434.399, 191.042 435.691, 191.914 437.012 C 192.863 438.449, 192.998 439.107, 192.250 438.648 C 190.470 437.557, 190.701 439.558, 192.571 441.429 C 193.436 442.293, 193.868 443, 193.532 443 C 193.196 443, 193.499 443.619, 194.205 444.375 C 194.912 445.131, 196.128 445.504, 196.909 445.205 C 197.689 444.905, 198.073 445.074, 197.761 445.580 C 197.450 446.086, 198.501 446.594, 200.097 446.710 C 201.694 446.825, 203 446.552, 203 446.103 C 203 445.654, 204.349 445.335, 205.998 445.394 C 207.646 445.452, 208.996 445.825, 208.998 446.222 C 208.999 446.619, 211.736 448.302, 215.080 449.961 C 218.423 451.620, 222.430 453.882, 223.984 454.989 C 225.538 456.095, 227.461 457, 228.258 457 C 229.056 457, 230.949 458.150, 232.465 459.555 C 233.982 460.961, 235.503 461.831, 235.845 461.488 C 236.673 460.661, 223.320 448.252, 219.500 446.298 C 217.850 445.455, 214.250 443.092, 211.500 441.048 C 208.750 439.004, 204.362 436.437, 201.748 435.344 C 195.373 432.679, 192 429.598, 192 426.441 C 192 425.026, 191.549 423.025, 190.997 421.994 C 190.115 420.347, 190.328 420.159, 192.747 420.446 C 194.261 420.625, 196.030 420.823, 196.679 420.886 C 197.327 420.949, 198.538 421.681, 199.370 422.513 C 201.039 424.182, 216 425.300, 216 423.756 C 216 423.275, 216.385 423.120, 216.855 423.410 C 217.325 423.701, 218.749 422.832, 220.020 421.479 C 221.986 419.386, 222.163 418.653, 221.208 416.558 C 219.598 413.024, 215.584 411.348, 206.806 410.544 C 198.610 409.794, 196.633 408.616, 197.173 404.805 C 197.465 402.746, 198.113 402.468, 203.250 402.200 C 206.412 402.035, 209 401.473, 209 400.950 C 209 400.428, 211.363 400.061, 214.250 400.136 C 217.137 400.211, 218.375 400.474, 217 400.721 C 215.625 400.968, 214.072 401.581, 213.550 402.085 C 212.973 402.641, 216.196 403, 221.769 403 C 229.214 403, 230.836 402.737, 230.400 401.601 C 229.952 400.432, 233.282 400.179, 250.599 400.063 C 268.897 399.940, 271.488 399.723, 272.636 398.212 C 274.342 395.966, 274.325 393.828, 272.582 391.441 C 271.240 389.603, 269.351 389.474, 236.832 389 C 199.228 388.452, 198 388.261, 198 382.965 L 198 380 221.375 380 C 234.231 380, 246.269 379.682, 248.125 379.292 L 251.500 378.585 248.500 377.911 C 246.850 377.540, 251.864 377.183, 259.643 377.118 C 271.368 377.020, 273.884 377.256, 274.362 378.500 C 274.758 379.532, 276.371 380, 279.534 380 C 285.247 380, 287.387 378.895, 288.942 375.141 C 289.949 372.710, 289.882 371.672, 288.553 369.103 C 287.671 367.396, 286.848 365.908, 286.724 365.796 C 286.601 365.683, 266.025 365.346, 241 365.046 L 195.500 364.500 195.822 361.750 C 195.998 360.238, 195.476 358.334, 194.662 357.519 C 193.252 356.109, 187.485 353.897, 181.938 352.638 C 180.528 352.318, 176.918 349.906, 173.914 347.278 C 170.911 344.650, 167.322 341.600, 165.939 340.500 C 164.556 339.400, 159.061 332.343, 153.727 324.818 C 148.394 317.293, 143.580 310.858, 143.030 310.519 C 141.997 309.880, 136.648 300.988, 130.987 290.500 C 126.015 281.288, 120.936 267.309, 119.543 259 C 118.313 251.666, 118.258 251.567, 117.037 254.500 M 470.159 263.868 C 468.692 272.748, 463.128 288.669, 457.318 300.611 C 452.906 309.678, 451.842 310.955, 430.611 332.657 C 418.450 345.088, 404.225 358.851, 399 363.241 C 388.269 372.259, 381.998 379, 384.341 379 C 385.164 379, 390.711 376.560, 396.668 373.577 C 416.318 363.740, 430.101 351.621, 442.104 333.630 C 451.258 319.909, 452.783 318, 454.592 318 C 456.377 318, 455.371 324.160, 452.547 330.524 C 450.339 335.500, 442.931 346.545, 436.293 354.759 C 434.400 357.102, 427.822 362.890, 421.675 367.621 C 404.708 380.681, 390.774 387, 378.941 387 C 370.128 387, 369.503 388.899, 376.691 393.833 C 386.016 400.233, 393.978 408.957, 395.116 414.021 C 395.649 416.393, 395.805 419.610, 395.463 421.167 C 394.939 423.552, 394.340 423.999, 391.671 423.996 C 385.879 423.989, 382.465 420.907, 379.981 413.442 C 377.256 405.256, 372.869 400.143, 364.600 395.519 C 354.372 389.799, 350.591 389.257, 318.982 388.983 C 303.317 388.847, 289.783 388.795, 288.907 388.868 C 288.032 388.940, 286.513 390.489, 285.533 392.309 C 283.896 395.349, 283.878 395.863, 285.310 398.632 C 288.292 404.399, 288.699 404.500, 308.910 404.500 L 327.500 404.500 327.827 406.805 C 328.614 412.360, 329.531 412.263, 280.194 411.865 L 234.825 411.500 232.818 413.977 C 230.447 416.905, 230.906 422.727, 233.668 424.747 C 235.297 425.937, 259.587 426.500, 309.378 426.500 C 321.445 426.500, 323.400 426.726, 324.361 428.231 C 325.223 429.582, 325.077 430.351, 323.693 431.731 C 322.042 433.379, 319.061 433.474, 280.158 433.121 L 238.395 432.742 235.697 435.948 C 232.472 439.781, 232.360 441.438, 235.028 445.814 L 237.048 449.127 280.274 448.995 C 304.048 448.923, 324.063 448.894, 324.750 448.932 C 326.754 449.041, 326.213 453.816, 324.066 454.965 C 322.858 455.611, 310.926 456.006, 292.316 456.015 C 275.917 456.024, 262.005 456.361, 261.400 456.765 C 260.795 457.169, 259.772 458.502, 259.127 459.727 C 257.495 462.826, 259.989 468.665, 263.517 470.006 C 266.725 471.226, 316.176 471.244, 335 470.033 C 349.280 469.114, 353.799 467.954, 366.500 461.947 C 370.987 459.825, 375.383 456.713, 378.745 453.279 C 384.754 447.140, 386.482 444.254, 389.986 434.500 C 391.580 430.062, 393.049 427.500, 394 427.500 C 396.798 427.500, 395.224 435.074, 389.461 449.338 C 388.804 450.964, 389.289 450.887, 393.657 448.674 C 404.591 443.133, 423.952 426.841, 437.834 411.500 C 447.123 401.235, 461.998 378.019, 462.001 373.783 C 462.001 373.077, 463.366 369.617, 465.033 366.093 C 473.248 348.727, 478.899 316.795, 477.655 294.765 C 476.976 282.749, 473.132 257, 472.016 257 C 471.618 257, 470.783 260.090, 470.159 263.868 M 283.603 259.833 C 282.714 261.272, 286.787 276.184, 288.821 278.937 C 292.247 283.573, 292.699 282.543, 292.399 270.781 L 292.112 259.500 288.148 259.197 C 285.967 259.030, 283.923 259.316, 283.603 259.833 M 299.592 268.250 C 299.712 273.337, 299.853 278.842, 299.905 280.482 L 300 283.464 302.647 279.569 C 305.823 274.895, 308 268.092, 308 262.841 L 308 259 303.688 259 L 299.375 259 299.592 268.250 M 165.381 265.541 C 164.048 267.576, 163.939 268.572, 164.837 270.541 C 166.693 274.615, 175 273.094, 175 268.680 C 175 263.339, 168.264 261.141, 165.381 265.541 M 194.685 281.157 C 192.231 282.530, 192.622 286.816, 195.551 290.656 C 198.940 295.099, 202.817 295.194, 206.411 290.923 C 209.516 287.233, 209.717 283.959, 206.990 281.491 C 205.220 279.889, 204.676 279.835, 202.429 281.038 C 200.526 282.056, 199.430 282.125, 198.123 281.309 C 196.985 280.598, 195.778 280.545, 194.685 281.157 M 385.438 292.068 C 383.729 293.957, 383.697 294.370, 385.067 296.818 C 387.672 301.476, 394 300.565, 394 295.533 C 394 293.050, 391.148 290, 388.826 290 C 387.992 290, 386.468 290.931, 385.438 292.068 M 123.555 354.237 C 124.033 358.012, 124.827 358.878, 126.060 356.971 C 127.448 354.825, 126.760 351.718, 124.836 351.442 C 123.528 351.253, 123.254 351.853, 123.555 354.237 M 134.022 378.628 C 134.010 379.248, 134.695 380.332, 135.546 381.038 C 136.396 381.743, 136.887 382.852, 136.638 383.501 C 135.705 385.931, 137.517 386.691, 139.500 384.701 C 141.206 382.989, 141.242 382.785, 139.750 383.315 C 138.787 383.657, 137.990 383.614, 137.978 383.219 C 137.939 381.967, 134.046 377.448, 134.022 378.628 M 141.482 387.057 C 140.934 388.782, 140.590 388.962, 139.906 387.882 C 139.425 387.122, 139.024 386.962, 139.015 387.527 C 139.007 388.093, 139.701 389.555, 140.557 390.777 C 141.413 392, 141.652 393, 141.088 393 C 140.524 393, 140.321 393.672, 140.636 394.494 C 140.952 395.316, 141.689 395.692, 142.275 395.330 C 142.936 394.922, 143.105 395.284, 142.721 396.285 C 142.292 397.403, 142.535 397.732, 143.513 397.357 C 144.289 397.059, 145.227 395.844, 145.597 394.658 C 145.967 393.471, 146.686 392.232, 147.194 391.904 C 147.703 391.576, 146.967 390.553, 145.560 389.631 C 143.335 388.173, 143 388.153, 143 389.477 C 143 390.315, 142.550 391, 142 391 C 140.724 391, 140.740 390.354, 142.081 387.849 C 142.676 386.738, 142.942 385.608, 142.672 385.339 C 142.403 385.070, 141.867 385.843, 141.482 387.057 M 237 402.040 C 235.475 402.504, 238.758 402.840, 245.417 402.900 C 251.421 402.955, 256.123 402.790, 255.866 402.533 C 255.008 401.674, 239.533 401.270, 237 402.040 M 348.106 421.157 C 345.051 422.287, 345.320 426.369, 348.547 427.839 C 352.466 429.625, 354.800 429.236, 356.595 426.495 C 357.854 424.574, 357.968 423.667, 357.086 422.604 C 355.658 420.883, 350.913 420.118, 348.106 421.157" stroke="none" fill="#243242" fill-rule="evenodd"/></svg>